<?xml version="1.0" standalone="no"?>
<!DOCTYPE svg PUBLIC "-//W3C//DTD SVG 1.1//EN" "http://www.w3.org/Graphics/SVG/1.1/DTD/svg11.dtd" >
<svg xmlns="http://www.w3.org/2000/svg">
<metadata>Generated by IcoMoon</metadata>
<defs>
<font id="icomoon" horiz-adv-x="1024">
<font-face units-per-em="1024" ascent="960" descent="-64" />
<missing-glyph horiz-adv-x="1024" />
<glyph unicode="&#x20;" horiz-adv-x="512" d="" />
<glyph unicode="&#xe900;" glyph-name="behance-line" d="M320 490.667c22.632 0 44.337 8.99 60.34 24.994s24.994 37.708 24.994 60.339c0 22.632-8.99 44.337-24.994 60.34s-37.708 24.994-60.34 24.994h-192v-170.667h192zM362.667 405.333h-234.667v-170.667h234.667c22.632 0 44.337 8.99 60.34 24.994s24.994 37.709 24.994 60.339c0 22.63-8.99 44.335-24.994 60.339s-37.708 24.994-60.34 24.994zM450.688 466.261c31.979-19.23 56.777-48.41 70.592-83.076 13.815-34.662 15.889-72.9 5.905-108.855-9.988-35.955-31.484-67.648-61.197-90.223s-66.005-34.79-103.322-34.773h-320v597.333h277.333c32.49-0.004 64.303-9.281 91.702-26.742s49.243-42.38 62.969-71.828c13.726-29.448 18.761-62.202 14.511-94.413s-17.604-62.539-38.494-87.422zM661.333 704h234.667v-64h-234.667v64zM981.333 341.333h-320v-10.667c-0.009-26.355 8.853-51.951 25.165-72.653s39.117-35.311 64.747-41.472c25.626-6.161 52.578-3.516 76.518 7.514 23.936 11.029 43.465 29.798 55.437 53.278h91.051c-13.001-47.287-42.697-88.26-83.593-115.328-40.892-27.068-90.21-38.396-138.82-31.885-48.606 6.507-93.205 30.413-125.538 67.29-32.329 36.873-50.202 84.215-50.3 133.257v64c0 53.751 21.35 105.301 59.358 143.307s89.557 59.36 143.309 59.36 105.301-21.353 143.309-59.36c38.007-38.006 59.358-89.556 59.358-143.307v-53.333zM891.563 426.667c-6.985 24.555-21.786 46.161-42.159 61.547s-45.21 23.71-70.737 23.71c-25.527 0-50.364-8.324-70.737-23.71s-35.174-36.992-42.159-61.547h225.792z" />
<glyph unicode="&#xe903;" glyph-name="dribbble-fill" d="M512 874.667c-235.52 0-426.667-191.147-426.667-426.667s191.147-426.667 426.667-426.667c235.093 0 426.667 191.147 426.667 426.667s-191.573 426.667-426.667 426.667zM793.813 677.973c52.51-63.971 81.566-143.973 82.347-226.731-11.989 2.304-132.309 26.837-253.568 11.563-2.773 6.016-5.12 12.501-7.851 18.987-7.552 17.792-15.573 35.375-24.064 52.736 134.187 54.613 195.285 133.291 203.136 143.445zM512 811.733c92.587 0 177.237-34.731 241.579-91.648-6.485-9.216-61.568-82.816-191.147-131.413-59.691 109.653-125.867 199.467-136.064 213.333 28.070 6.562 56.806 9.827 85.632 9.728zM356.992 777.472c48.829-67.683 93.939-137.974 135.125-210.56-170.325-45.355-320.725-44.373-336.896-44.373 11.726 55.162 36.037 106.871 71.036 151.092s79.741 79.759 130.735 103.842zM147.328 447.573v11.093c15.787-0.427 192.512-2.773 374.4 51.84 10.667-20.352 20.352-41.173 29.611-61.995-4.651-1.408-9.728-2.773-14.336-4.181-187.904-60.587-287.872-226.261-296.192-240.171-60.167 66.795-93.455 153.515-93.44 243.413h-0.043zM512 83.328c-81.007-0.137-159.715 26.906-223.531 76.8 6.485 13.44 80.555 155.989 285.995 227.712 0.939 0.427 1.408 0.427 2.304 0.939 34.658-89.404 60.706-181.914 77.781-276.267-45.022-19.371-93.538-29.303-142.549-29.184zM715.136 145.835c-3.669 22.187-23.125 128.64-70.827 259.584 114.347 18.048 214.315-11.563 226.773-15.744-7.782-49.199-25.651-96.256-52.489-138.219s-62.059-77.922-103.458-105.621z" />
<glyph unicode="&#xe904;" glyph-name="Frame" d="M926.17 862.17c9.434-9.433 13.909-22.735 12.105-35.952-17.698-129.39-70.003-251.601-151.39-353.735-73.609-92.369-168.538-165.218-276.399-212.433 4.343-36.254-0.683-73.118-14.724-107.021-16.145-38.985-43.49-72.303-78.573-95.744s-76.328-35.951-118.522-35.951h-170.667c-23.564 0-42.667 19.102-42.667 42.667v170.667c0 42.193 12.512 83.439 35.953 118.519 23.441 35.085 56.759 62.43 95.741 78.575 33.904 14.042 70.768 19.068 107.023 14.724 47.212 107.859 120.063 202.79 212.436 276.399 102.131 81.387 224.341 133.69 353.732 151.388 13.218 1.808 26.517-2.671 35.951-12.103zM331.054 358.502c1.208-0.593 2.455-1.135 3.739-1.617 2.807-1.062 5.655-1.805 8.506-2.253 17.156-6.383 32.821-16.401 45.877-29.457s23.074-28.719 29.457-45.875c0.447-2.854 1.192-5.7 2.252-8.508 0.485-1.284 1.025-2.53 1.617-3.738 0.641-2.449 1.21-4.924 1.706-7.415 4.938-24.832 2.404-50.569-7.284-73.958-9.688-23.386-26.094-43.379-47.144-57.442-21.050-14.067-45.797-21.572-71.113-21.572h-128v128c0 25.314 7.507 50.065 21.572 71.113s34.056 37.457 57.445 47.142c23.389 9.69 49.126 12.224 73.955 7.283 2.493-0.495 4.966-1.062 7.416-1.702zM483.383 341.389c-9.263 16.038-20.629 30.886-33.869 44.126-13.235 13.239-28.086 24.606-44.124 33.869 16.285 36.006 35.83 70.332 58.332 102.571 50.551-29.577 92.655-71.68 122.231-122.231-32.239-22.502-66.564-42.048-102.571-58.334zM653.065 453.628c24.090 22.174 46.528 46.242 67.085 72.034 59.319 74.441 101.129 160.968 122.679 253.167-92.198-21.553-178.726-63.362-253.163-122.68-25.796-20.555-49.865-42.995-72.038-67.084 54.818-34.294 101.146-80.619 135.437-135.437z" />
<glyph unicode="&#xe905;" glyph-name="Frame-1" d="M768 704c23.565 0 42.667-19.103 42.667-42.667v-597.333c0-23.565-19.102-42.667-42.667-42.667s-42.667 19.102-42.667 42.667v597.333c0 23.564 19.102 42.667 42.667 42.667zM481.83 478.17c16.661 16.661 43.678 16.661 60.339 0l128-128c16.661-16.661 16.661-43.678 0-60.339s-43.678-16.661-60.339 0l-97.83 97.83-97.83-97.83c-16.663-16.661-43.677-16.661-60.34 0s-16.662 43.678 0 60.339l128 128zM737.83 691.503c16.661 16.662 43.678 16.662 60.339 0l128-128c16.661-16.663 16.661-43.678 0-60.34s-43.678-16.661-60.339 0l-97.83 97.83-97.83-97.83c-16.661-16.661-43.678-16.661-60.339 0s-16.661 43.677 0 60.34l128 128zM85.333 64c0 23.565 19.103 42.667 42.667 42.667h768c23.565 0 42.667-19.102 42.667-42.667s-19.102-42.667-42.667-42.667h-768c-23.564 0-42.667 19.102-42.667 42.667zM512 490.667c23.565 0 42.667-19.102 42.667-42.667v-384c0-23.565-19.102-42.667-42.667-42.667s-42.667 19.102-42.667 42.667v384c0 23.565 19.102 42.667 42.667 42.667zM225.83 862.17c16.663 16.662 43.677 16.662 60.34 0l128-128c16.661-16.663 16.661-43.677 0-60.34-16.663-16.662-43.677-16.662-60.34 0l-97.83 97.83-97.83-97.83c-16.663-16.662-43.677-16.662-60.34 0s-16.662 43.677 0 60.34l128 128zM256 874.667c23.564 0 42.667-19.103 42.667-42.667v-768c0-23.565-19.103-42.667-42.667-42.667s-42.667 19.102-42.667 42.667v768c0 23.564 19.103 42.667 42.667 42.667z" />
<glyph unicode="&#xe906;" glyph-name="Frame-2" d="M252.37 786.58c77.071 59.099 171.998 90.136 269.098 87.982 97.097-2.155 190.554-37.372 264.926-99.832 18.044-15.154 20.39-42.068 5.235-60.113s-42.069-20.388-60.113-5.233c-59.499 49.968-134.263 78.142-211.942 79.866s-153.621-23.106-215.277-70.385c-61.657-47.279-105.338-114.18-123.825-189.644-18.488-75.469-10.676-154.982 22.146-225.408s88.687-127.543 158.367-161.92c69.677-34.377 149.003-43.951 224.86-27.145 75.857 16.811 143.71 58.995 192.346 119.59 39.667 49.417 64.614 108.668 72.469 170.995h-295.991c-23.565 0-42.667 19.102-42.667 42.667 0 23.561 19.102 42.667 42.667 42.667h341.333c11.315 0 22.17-4.497 30.17-12.497 8.004-8.004 12.497-18.854 12.497-30.174 0-97.118-33.135-191.334-93.931-267.076-60.796-75.738-145.613-128.474-240.435-149.483s-193.973-9.041-281.072 33.929c-87.099 42.97-156.931 114.368-197.958 202.402-41.027 88.030-50.792 187.422-27.683 281.755s77.711 177.958 154.782 237.057z" />
<glyph unicode="&#xe907;" glyph-name="Frame-3" d="M607.68 830.716c22.861-5.715 36.762-28.881 31.044-51.741l-170.667-682.668c-5.713-22.861-28.877-36.757-51.739-31.044-22.861 5.717-36.76 28.881-31.045 51.742l170.668 682.667c5.713 22.86 28.877 36.759 51.738 31.045zM286.17 648.826c16.662-16.662 16.662-43.677 0-60.34l-140.497-140.495 140.497-140.497c16.662-16.666 16.662-43.678 0-60.339-16.663-16.666-43.677-16.666-60.34 0l-170.667 170.667c-8.001 8-12.497 18.85-12.497 30.17 0 11.315 4.495 22.165 12.497 30.17l170.667 170.665c16.663 16.662 43.677 16.662 60.34 0zM737.83 648.826c16.661 16.662 43.678 16.662 60.339 0l170.667-170.665c8-8.004 12.497-18.854 12.497-30.17 0-11.319-4.497-22.17-12.497-30.17l-170.667-170.667c-16.661-16.666-43.678-16.666-60.339 0-16.661 16.661-16.661 43.674 0 60.339l140.497 140.497-140.497 140.495c-16.661 16.662-16.661 43.677 0 60.34z" />
<glyph unicode="&#xe908;" glyph-name="Frame-4" d="M222.706 737.294c12.497 12.497 32.758 12.497 45.255 0l233.373-233.371 233.374 233.371c12.497 12.497 32.755 12.497 45.252 0s12.497-32.758 0-45.255l-233.37-233.373 233.37-233.374c12.497-12.497 12.497-32.755 0-45.252s-32.755-12.497-45.252 0l-233.374 233.37-233.373-233.37c-12.497-12.497-32.758-12.497-45.255 0s-12.497 32.755 0 45.252l233.371 233.374-233.371 233.373c-12.497 12.497-12.497 32.758 0 45.255z" />
<glyph unicode="&#xe909;" glyph-name="Frame-5" d="M528.806 757.901c86.221-3.496 167.518-34.706 228.902-87.064 61.303-52.288 98.394-121.867 105.6-195.453 7.206-73.532-15.782-147.383-65.643-207.872-49.954-60.604-123.61-103.718-207.744-120.384-84.147-16.67-172.134-5.551-247.405 30.989-6.407 3.11-13.669 3.994-20.635 2.513l-145.83-31.027 37.781 113.344c3.146 9.438 1.723 19.802-3.849 28.041-43.293 64.030-58.665 139.285-43.947 212.002 14.739 72.815 58.913 139.317 125.544 186.588 66.698 47.319 151.004 71.82 237.225 68.324zM126.215 74.705c3.052-0.171 6.074 0.098 8.982 0.772l189.484 40.316c85.731-38.933 183.867-50.031 277.674-31.445 97.527 19.319 184.653 69.611 244.698 142.46 60.143 72.964 88.896 163.533 79.953 254.818-8.939 91.229-54.775 175.647-127.765 237.905-72.909 62.187-168.132 98.275-267.84 102.318s-198.081-24.191-276.851-80.073c-78.837-55.931-133.020-136.076-151.239-226.089-17.196-84.954-1.014-172.181 44.957-247.053l-50.446-151.339c-0.994-2.812-1.601-5.786-1.771-8.836-0.223-3.93 0.29-7.804 1.449-11.456 1.396-4.429 3.696-8.371 6.646-11.665 2.944-3.302 6.605-6.029 10.851-7.91 3.497-1.562 7.292-2.505 11.22-2.722zM512 480c17.673 0 32-14.327 32-32v-0.427c0-17.673-14.327-32-32-32s-32 14.327-32 32v0.427c0 17.673 14.327 32 32 32zM341.333 480c17.673 0 32-14.327 32-32v-0.427c0-17.673-14.327-32-32-32s-32 14.327-32 32v0.427c0 17.673 14.327 32 32 32zM682.667 480c17.673 0 32-14.327 32-32v-0.427c0-17.673-14.327-32-32-32s-32 14.327-32 32v0.427c0 17.673 14.327 32 32 32z" />
<glyph unicode="&#xe90a;" glyph-name="Frame-6" d="M130.37 744.3c22.004 22.004 51.848 34.366 82.967 34.366h597.334c31.117 0 60.962-12.362 82.965-34.366s34.368-51.848 34.368-82.967v-42.172c0.004-0.311 0.004-0.621 0-0.931v-383.564c0-31.117-12.365-60.962-34.368-82.965-22.003-22.007-51.849-34.368-82.965-34.368h-597.334c-31.119 0-60.963 12.361-82.967 34.368-22.004 22.003-34.366 51.849-34.366 82.965v383.562c-0.005 0.311-0.005 0.623 0 0.934v42.17c0 31.119 12.362 60.963 34.366 82.967zM160.003 558.874v-324.207c0-14.144 5.619-27.712 15.621-37.713s23.567-15.62 37.712-15.62h597.334c14.144 0 27.708 5.619 37.713 15.62 10.001 10.001 15.62 23.569 15.62 37.713v324.207l-286.882-191.254c-19.281-12.864-41.941-19.729-65.118-19.729-23.181 0-45.841 6.865-65.122 19.729l-286.879 191.254zM864.004 635.793v25.541c0 14.145-5.619 27.71-15.62 37.712-10.005 10.002-23.569 15.621-37.713 15.621h-597.334c-14.145 0-27.71-5.619-37.712-15.621s-15.621-23.567-15.621-37.712v-25.541l322.399-214.933c8.764-5.85 19.063-8.969 29.602-8.969 10.534 0 20.843 3.127 29.611 8.973l322.389 214.929z" />
<glyph unicode="&#xe90b;" glyph-name="Frame-7" d="M213.333 800c-14.145 0-27.71-5.619-37.712-15.621s-15.621-23.567-15.621-37.712v-42.667c0-335.778 272.222-608 608-608h42.667c14.144 0 27.712 5.619 37.713 15.62s15.62 23.569 15.62 37.713v139.904c0 2.24-0.704 4.429-2.014 6.246s-3.157 3.174-5.282 3.883l-191.684 63.91c-0.004 0 0.004 0 0 0-2.432 0.806-5.086 0.713-7.45-0.269-2.372-0.986-4.309-2.79-5.457-5.086l-48.226-96.324c-7.689-15.36-26.133-21.905-41.788-14.835-111.569 50.411-200.926 139.767-251.335 251.337-7.073 15.654-0.525 34.099 14.835 41.789l96.299 48.213c2.296 1.147 4.125 3.096 5.11 5.466 0.981 2.368 1.079 5.009 0.273 7.442-0.004 0.003 0-0.003 0 0l-63.91 191.684c-0.707 2.123-2.067 3.98-3.882 5.289-1.812 1.308-3.99 2.013-6.225 2.016h-139.931zM130.366 829.634c22.004 22.004 51.848 34.366 82.967 34.366h139.947c15.665-0.012 30.953-4.95 43.656-14.116 12.701-9.164 22.198-22.089 27.149-36.947 0.001-0.003-0.001 0.003 0 0l63.915-191.701c5.666-17.049 5.005-35.598-1.877-52.193-6.886-16.593-19.52-30.148-35.593-38.18 0 0 0.004 0.004 0 0l-67.82-33.954c40.706-75.529 102.67-137.493 178.199-178.197l33.954 67.814c8.030 16.060 21.594 28.715 38.182 35.597 16.593 6.882 35.115 7.552 52.164 1.886l191.718-63.919c14.874-4.954 27.81-14.464 36.979-27.183 9.165-12.719 14.093-27.994 14.093-43.669 0-0.004 0 0.004 0 0v-139.904c0-31.117-12.361-60.962-34.368-82.965-22.003-22.007-51.849-34.368-82.965-34.368h-42.667c-371.124 0-672 300.877-672 672v42.667c0 31.119 12.362 60.963 34.366 82.967z" />
<glyph unicode="&#xe90c;" glyph-name="Frame-8" d="M554.667 800c14.144 0 27.712-5.619 37.713-15.621s15.62-23.567 15.62-37.712c0-14.145-5.619-27.71-15.62-37.712s-23.569-15.621-37.713-15.621h-85.333c-14.144 0-27.712 5.619-37.713 15.621s-15.62 23.567-15.62 37.712c0 14.145 5.619 27.71 15.62 37.712s23.569 15.621 37.713 15.621h85.333zM637.632 829.634c-22.003 22.004-51.849 34.366-82.965 34.366h-85.333c-31.117 0-60.963-12.362-82.967-34.366-14.284-14.284-24.505-31.872-29.919-50.967h-57.781c-31.119 0-60.963-12.362-82.967-34.366s-34.366-51.848-34.366-82.967v-512c0-31.117 12.362-60.962 34.366-82.965 22.004-22.007 51.849-34.368 82.967-34.368h426.667c31.117 0 60.962 12.361 82.965 34.368 22.007 22.003 34.368 51.849 34.368 82.965v512c0 31.119-12.361 60.963-34.368 82.967-22.003 22.004-51.849 34.366-82.965 34.366h-57.779c-5.414 19.095-15.637 36.683-29.922 50.967zM667.554 714.667h57.779c14.144 0 27.712-5.619 37.713-15.621s15.62-23.567 15.62-37.712v-512c0-14.144-5.619-27.712-15.62-37.713s-23.569-15.62-37.713-15.62h-426.667c-14.145 0-27.71 5.619-37.712 15.62s-15.621 23.569-15.621 37.713v512c0 14.145 5.619 27.71 15.621 37.712s23.567 15.621 37.712 15.621h57.781c5.414-19.095 15.635-36.683 29.919-50.967 22.004-22.004 51.85-34.366 82.967-34.366h85.333c31.117 0 60.962 12.362 82.965 34.366 14.285 14.284 24.508 31.872 29.922 50.967zM672 448c0 17.673-14.327 32-32 32h-0.427c-17.673 0-32-14.327-32-32s14.327-32 32-32h0.427c17.673 0 32 14.327 32 32zM544 448c0 17.673-14.327 32-32 32h-128c-17.673 0-32-14.327-32-32s14.327-32 32-32h128c17.673 0 32 14.327 32 32zM672 277.333c0 17.673-14.327 32-32 32h-0.427c-17.673 0-32-14.327-32-32s14.327-32 32-32h0.427c17.673 0 32 14.327 32 32zM544 277.333c0 17.673-14.327 32-32 32h-128c-17.673 0-32-14.327-32-32s14.327-32 32-32h128c17.673 0 32 14.327 32 32z" />
<glyph unicode="&#xe90d;" glyph-name="Frame-9" d="M298.667 800c-14.145 0-27.71-5.619-37.712-15.621s-15.621-23.567-15.621-37.712v-597.333c0-14.144 5.619-27.712 15.621-37.713s23.567-15.62 37.712-15.62h426.667c14.144 0 27.712 5.619 37.713 15.62s15.62 23.569 15.62 37.713v408.996c0 0.002 0-0.002 0 0-0.004 2.826-1.126 5.543-3.123 7.541l-231.002 231.001c-2.001 1.999-4.715 3.126-7.539 3.129-0.004 0 0.004 0 0 0h-238.336zM215.7 829.634c22.004 22.004 51.848 34.366 82.967 34.366h238.336c19.802-0.004 38.793-7.872 52.791-21.874zM589.794 842.126l230.997-230.994c0-0.001-0.004 0.001 0 0 13.999-13.999 21.871-32.99 21.875-52.789v-409.009c0-31.117-12.361-60.962-34.368-82.965-22.003-22.007-51.849-34.368-82.965-34.368h-426.667c-31.119 0-60.963 12.361-82.967 34.368-22.004 22.003-34.366 51.849-34.366 82.965v597.333c0 31.119 12.362 60.963 34.366 82.967zM352 448c0 17.673 14.327 32 32 32h256c17.673 0 32-14.327 32-32s-14.327-32-32-32h-256c-17.673 0-32 14.327-32 32zM352 277.333c0 17.673 14.327 32 32 32h256c17.673 0 32-14.327 32-32s-14.327-32-32-32h-256c-17.673 0-32 14.327-32 32z" />
<glyph unicode="&#xe90e;" glyph-name="Frame-10" d="M233.373 598.627c12.497 12.497 32.758 12.497 45.255 0l233.373-233.371 233.374 233.371c12.497 12.497 32.755 12.497 45.252 0s12.497-32.758 0-45.255l-256-255.999c-12.497-12.497-32.755-12.497-45.252 0l-256.001 255.999c-12.497 12.497-12.497 32.758 0 45.255z" />
<glyph unicode="&#xe90f;" glyph-name="Frame11" d="M96 789.333c0 17.673 14.327 32 32 32h554.667c17.673 0 32-14.327 32-32s-14.327-32-32-32h-554.667c-17.673 0-32 14.327-32 32zM96 618.667c0 17.673 14.327 32 32 32h384c17.673 0 32-14.327 32-32s-14.327-32-32-32h-384c-17.673 0-32 14.327-32 32zM725.333 650.667c17.673 0 32-14.327 32-32v-434.743l116.041 116.036c12.497 12.497 32.755 12.497 45.252 0s12.497-32.755 0-45.252l-170.667-170.667c-6.246-6.251-14.438-9.374-22.626-9.374-4.339 0-8.478 0.862-12.25 2.428-3.772 1.562-7.309 3.878-10.377 6.946l-170.667 170.667c-12.497 12.497-12.497 32.755 0 45.252s32.755 12.497 45.252 0l116.041-116.036v434.743c0 17.673 14.327 32 32 32zM96 448c0 17.673 14.327 32 32 32h384c17.673 0 32-14.327 32-32s-14.327-32-32-32h-384c-17.673 0-32 14.327-32 32z" />
<glyph unicode="&#xe910;" glyph-name="Frame-11" d="M418.133 42.667c-76.8 0-149.333 29.867-204.8 85.333s-85.333 128-85.333 204.8c0 76.8 29.867 149.333 85.333 204.8l273.067 281.6c38.4 34.133 89.6 55.467 140.8 55.467 55.467 0 102.4-21.333 140.8-59.733s59.733-89.6 59.733-140.8c4.267-55.467-17.067-102.4-55.467-140.8l-273.067-281.6c-12.8-12.8-25.6-21.333-38.4-25.6s-29.867-8.533-46.933-8.533c-17.067 0-29.867 4.267-46.933 8.533-12.8 4.267-25.6 12.8-38.4 25.6s-21.333 25.6-25.6 38.4c-4.267 12.8-4.267 25.6-4.267 42.667s4.267 29.867 8.533 46.933c4.267 12.8 17.067 25.6 25.6 38.4l281.6 281.6c12.8 12.8 34.133 12.8 46.933 0s12.8-34.133 0-46.933l-281.6-281.6c-4.267-4.267-8.533-12.8-12.8-17.067-4.267-8.533-4.267-12.8-4.267-21.333s0-12.8 4.267-21.333c4.267-8.533 8.533-12.8 12.8-17.067s12.8-8.533 17.067-12.8c4.267-4.267 8.533-4.267 17.067-4.267s12.8 0 21.333 4.267c8.533 4.267 12.8 8.533 17.067 12.8l273.067 281.6c25.6 25.6 42.667 59.733 42.667 98.133s-12.8 72.533-42.667 98.133c-29.867 25.6-59.733 38.4-98.133 42.667-34.133 0-72.533-12.8-98.133-38.4l-273.067-285.867c-42.667-42.667-64-98.133-64-157.867s21.333-115.2 64-157.867c42.667-42.667 98.133-64 157.867-64s115.2 21.333 157.867 64l268.8 264.533c12.8 12.8 34.133 12.8 46.933 0s12.8-34.133 0-46.933l-268.8-264.533c-55.467-51.2-123.733-85.333-200.533-85.333z" />
<glyph unicode="&#xe911;" glyph-name="Frame-12" d="M213.333 757.333h426.667c14.144 0 27.712-5.619 37.713-15.621s15.62-23.567 15.62-37.712v-512c0-18.714 4.471-36.971 12.821-53.333h-492.821c-14.145 0-27.71 5.619-37.712 15.62s-15.621 23.569-15.621 37.713v512c0 14.145 5.619 27.71 15.621 37.712s23.567 15.621 37.712 15.621zM213.333 821.333c-31.119 0-60.963-12.362-82.967-34.366s-34.366-51.848-34.366-82.967v-512c0-31.117 12.362-60.962 34.366-82.965 22.004-22.007 51.848-34.368 82.967-34.368h597.333c31.117 0 60.962 12.361 82.965 34.368 22.007 22.003 34.368 51.849 34.368 82.965v384c0 31.119-12.361 60.963-34.368 82.967-22.003 22.004-51.849 34.366-82.965 34.366h-53.333v10.667c0 31.119-12.361 60.963-34.368 82.967-22.003 22.004-51.849 34.366-82.965 34.366h-426.667zM757.333 629.333h53.333c14.144 0 27.712-5.619 37.713-15.621s15.62-23.567 15.62-37.712v-384c0-14.144-5.619-27.712-15.62-37.713s-23.569-15.62-37.713-15.62c-14.144 0-27.712 5.619-37.713 15.62s-15.62 23.569-15.62 37.713v437.333zM266.667 277.333c0 17.673 14.327 32 32 32h256c17.673 0 32-14.327 32-32s-14.327-32-32-32h-256c-17.673 0-32 14.327-32 32zM298.667 650.667h256c17.673 0 32-14.327 32-32v-170.667c0-17.673-14.327-32-32-32h-256c-17.673 0-32 14.327-32 32v170.667c0 17.673 14.327 32 32 32zM330.667 586.667v-106.667h192v106.667h-192z" />
<glyph unicode="&#xe912;" glyph-name="Frame-13" d="M256 757.333c-14.145 0-27.71-5.619-37.712-15.621s-15.621-23.567-15.621-37.712v-85.333c0-14.145 5.619-27.71 15.621-37.712s23.567-15.621 37.712-15.621h85.333c14.145 0 27.71 5.619 37.712 15.621s15.621 23.567 15.621 37.712v85.333c0 14.145-5.619 27.71-15.621 37.712s-23.567 15.621-37.712 15.621h-85.333zM173.033 786.967c22.004 22.004 51.848 34.366 82.967 34.366h85.333c31.119 0 60.963-12.362 82.967-34.366 22.006-22.004 34.366-51.848 34.366-82.967v-85.333c0-31.119-12.361-60.963-34.366-82.967-22.004-22.006-51.848-34.366-82.967-34.366h-85.333c-31.119 0-60.963 12.361-82.967 34.366s-34.366 51.848-34.366 82.967v85.333c0 31.119 12.362 60.963 34.366 82.967zM682.667 757.333c-14.144 0-27.712-5.619-37.713-15.621s-15.62-23.567-15.62-37.712v-85.333c0-14.145 5.619-27.71 15.62-37.712s23.569-15.621 37.713-15.621h85.333c14.144 0 27.712 5.619 37.713 15.621s15.62 23.567 15.62 37.712v85.333c0 14.145-5.619 27.71-15.62 37.712s-23.569 15.621-37.713 15.621h-85.333zM599.701 786.967c22.003 22.004 51.849 34.366 82.965 34.366h85.333c31.117 0 60.962-12.362 82.965-34.366 22.007-22.004 34.368-51.848 34.368-82.967v-85.333c0-31.119-12.361-60.963-34.368-82.967-22.003-22.006-51.849-34.366-82.965-34.366h-85.333c-31.117 0-60.962 12.361-82.965 34.366-22.007 22.004-34.368 51.848-34.368 82.967v85.333c0 31.119 12.361 60.963 34.368 82.967zM682.667 330.667c-14.144 0-27.712-5.619-37.713-15.62s-15.62-23.569-15.62-37.713v-85.333c0-14.144 5.619-27.712 15.62-37.713s23.569-15.62 37.713-15.62h85.333c14.144 0 27.712 5.619 37.713 15.62s15.62 23.569 15.62 37.713v85.333c0 14.144-5.619 27.712-15.62 37.713s-23.569 15.62-37.713 15.62h-85.333zM599.701 360.299c22.003 22.007 51.849 34.368 82.965 34.368h85.333c31.117 0 60.962-12.361 82.965-34.368 22.007-22.003 34.368-51.849 34.368-82.965v-85.333c0-31.117-12.361-60.962-34.368-82.965-22.003-22.007-51.849-34.368-82.965-34.368h-85.333c-31.117 0-60.962 12.361-82.965 34.368-22.007 22.003-34.368 51.849-34.368 82.965v85.333c0 31.117 12.361 60.962 34.368 82.965zM256.007 394.654c-31.119 0-60.963-12.361-82.967-34.364-22.004-22.007-34.366-51.849-34.366-82.97v-85.333c0-31.117 12.362-60.962 34.366-82.965 22.004-22.007 51.849-34.368 82.967-34.368h85.333c31.119 0 60.963 12.361 82.967 34.368 22.003 22.003 34.368 51.849 34.368 82.965v85.333c0 31.121-12.365 60.962-34.368 82.97-22.004 22.003-51.849 34.364-82.967 34.364h-85.333z" />
<glyph unicode="&#xe913;" glyph-name="Frame-14" d="M256 757.333h341.333c14.144 0 27.712-5.619 37.713-15.621s15.62-23.567 15.62-37.712v-53.333h-224c-31.119 0-60.963-12.362-82.967-34.366s-34.366-51.848-34.366-82.967v-224h-53.333c-14.145 0-27.71 5.619-37.712 15.62s-15.621 23.569-15.621 37.713v341.333c0 14.145 5.619 27.71 15.621 37.712s23.567 15.621 37.712 15.621zM714.667 650.667h53.333c31.117 0 60.962-12.362 82.965-34.366 22.007-22.004 34.368-51.848 34.368-82.967v-341.333c0-31.117-12.361-60.962-34.368-82.965-22.003-22.007-51.849-34.368-82.965-34.368h-341.333c-31.119 0-60.963 12.361-82.967 34.368-22.004 22.003-34.366 51.849-34.366 82.965v53.333h-53.333c-31.119 0-60.963 12.361-82.967 34.368-22.004 22.003-34.366 51.849-34.366 82.965v341.333c0 31.119 12.362 60.963 34.366 82.967s51.848 34.366 82.967 34.366h341.333c31.117 0 60.962-12.362 82.965-34.366 22.007-22.004 34.368-51.848 34.368-82.967v-53.333zM426.667 586.667c-14.145 0-27.71-5.619-37.712-15.621s-15.621-23.567-15.621-37.712v-341.333c0-14.144 5.619-27.712 15.621-37.713s23.567-15.62 37.712-15.62h341.333c14.144 0 27.712 5.619 37.713 15.62s15.62 23.569 15.62 37.713v341.333c0 14.145-5.619 27.71-15.62 37.712s-23.569 15.621-37.713 15.621h-341.333z" />
<glyph unicode="&#xe914;" glyph-name="Frame-15" d="M234.28 761.615c27.177 11.257 56.305 17.051 85.722 17.051s58.545-5.794 85.722-17.051c27.177-11.257 51.872-27.757 72.672-48.558l33.604-33.607 33.609 33.607c42.010 42.008 98.982 65.609 158.391 65.609s116.386-23.6 158.396-65.609c42.005-42.008 65.609-98.984 65.609-158.393 0-59.407-23.603-116.384-65.609-158.394l-327.765-327.765c-6.003-5.999-14.14-9.37-22.63-9.37-8.486 0-16.623 3.371-22.626 9.37l-327.765 327.765c-20.8 20.8-37.3 45.495-48.558 72.674-11.257 27.174-17.051 56.303-17.051 85.72s5.794 58.545 17.051 85.722c11.257 27.177 27.757 51.871 48.558 72.671s45.494 37.3 72.671 48.558zM320.002 714.667c-21.012 0-41.818-4.139-61.23-12.18s-37.051-19.826-51.908-34.684c-14.857-14.857-26.644-32.496-34.684-51.908s-12.18-40.218-12.18-61.23c0-21.012 4.139-41.816 12.18-61.229s19.826-37.052 34.684-51.908l305.136-305.139 305.139 305.139c30.007 30.007 46.865 70.703 46.865 113.137s-16.858 83.132-46.865 113.138c-30.007 30.006-70.703 46.863-113.139 46.863-42.432 0-83.132-16.857-113.135-46.863l-56.235-56.235c-6.003-6.001-14.14-9.373-22.63-9.373-8.486 0-16.623 3.372-22.626 9.373l-56.235 56.235c-14.857 14.858-32.495 26.644-51.908 34.684s-40.218 12.18-61.23 12.18z" />
<glyph unicode="&#xe915;" glyph-name="Frame-16" d="M213.333 757.333c-14.145 0-27.71-5.619-37.712-15.621s-15.621-23.567-15.621-37.712v-341.333c0-14.144 5.619-27.712 15.621-37.713s23.567-15.62 37.712-15.62h170.667c17.673 0 32-14.327 32-32v-136.077l158.707 158.703c5.999 6.003 14.14 9.374 22.626 9.374h213.333c14.144 0 27.712 5.619 37.713 15.62s15.62 23.569 15.62 37.713v341.333c0 14.145-5.619 27.71-15.62 37.712s-23.569 15.621-37.713 15.621h-597.333zM130.366 786.967c22.004 22.004 51.848 34.366 82.967 34.366h597.333c31.117 0 60.962-12.362 82.965-34.366 22.007-22.004 34.368-51.848 34.368-82.967v-341.333c0-31.117-12.361-60.962-34.368-82.965-22.003-22.007-51.849-34.368-82.965-34.368h-200.077l-203.962-203.959c-9.152-9.152-22.916-11.891-34.873-6.938s-19.754 16.623-19.754 29.564v181.333h-138.667c-31.119 0-60.963 12.361-82.967 34.368-22.004 22.003-34.366 51.849-34.366 82.965v341.333c0 31.119 12.362 60.963 34.366 82.967zM309.333 533.333c0 17.673 14.327 32 32 32h0.427c17.673 0 32-14.327 32-32s-14.327-32-32-32h-0.427c-17.673 0-32 14.327-32 32zM480 533.333c0 17.673 14.327 32 32 32h0.427c17.673 0 32-14.327 32-32s-14.327-32-32-32h-0.427c-17.673 0-32 14.327-32 32zM650.667 533.333c0 17.673 14.327 32 32 32h0.427c17.673 0 32-14.327 32-32s-14.327-32-32-32h-0.427c-17.673 0-32 14.327-32 32z" />
<glyph unicode="&#xe916;" glyph-name="Frame-22" d="M138.667 618.667c0 17.673 14.327 32 32 32h682.667c17.673 0 32-14.327 32-32s-14.327-32-32-32h-682.667c-17.673 0-32 14.327-32 32zM138.667 277.333c0 17.673 14.327 32 32 32h682.667c17.673 0 32-14.327 32-32s-14.327-32-32-32h-682.667c-17.673 0-32 14.327-32 32z" />
<glyph unicode="&#xe917;" glyph-name="Frame-33" d="M321.294 641.294c12.497-12.497 12.497-32.758 0-45.255l-116.039-116.039h690.745c17.673 0 32-14.327 32-32s-14.327-32-32-32h-690.745l116.039-116.041c12.497-12.497 12.497-32.755 0-45.252s-32.758-12.497-45.255 0l-170.667 170.667c-3.068 3.068-5.383 6.605-6.944 10.377-1.565 3.772-2.428 7.91-2.428 12.25s0.864 8.478 2.428 12.25c1.562 3.772 3.876 7.309 6.944 10.377l170.667 170.668c12.497 12.497 32.758 12.497 45.255 0z" />
<glyph unicode="&#xe918;" glyph-name="Frame-111" d="M406.627 811.961c12.497-12.497 12.497-32.758 0-45.255l-201.373-201.373h349.412c99.012 0 193.971-39.334 263.987-109.346 70.012-70.016 109.346-164.975 109.346-263.987v-85.333c0-17.673-14.327-32-32-32s-32 14.327-32 32v85.333c0 82.039-32.589 160.721-90.603 218.731-58.010 58.014-136.691 90.603-218.731 90.603h-349.412l201.373-201.374c12.497-12.497 12.497-32.755 0-45.252s-32.758-12.497-45.255 0l-256 256c-12.497 12.497-12.497 32.757 0 45.254l256 256c12.497 12.497 32.758 12.497 45.255 0z" />
<glyph unicode="&#xe919;" glyph-name="instagram-line" d="M512 576c-33.946 0-66.505-13.486-90.51-37.49s-37.49-56.564-37.49-90.51c0-33.946 13.486-66.505 37.49-90.509s56.564-37.491 90.51-37.491c33.946 0 66.505 13.487 90.509 37.491s37.491 56.563 37.491 90.509c0 33.946-13.487 66.505-37.491 90.51s-56.563 37.49-90.509 37.49zM512 661.333c56.58 0 110.844-22.476 150.848-62.484 40.009-40.008 62.485-94.269 62.485-150.849s-22.477-110.844-62.485-150.848c-40.004-40.009-94.268-62.485-150.848-62.485s-110.842 22.477-150.849 62.485c-40.008 40.004-62.484 94.268-62.484 150.848s22.476 110.842 62.484 150.849c40.008 40.008 94.269 62.484 150.849 62.484zM789.333 672c0-14.145-5.619-27.71-15.62-37.712s-23.569-15.621-37.713-15.621c-14.144 0-27.712 5.619-37.713 15.621s-15.62 23.567-15.62 37.712c0 14.145 5.619 27.71 15.62 37.712s23.569 15.621 37.713 15.621c14.144 0 27.712-5.619 37.713-15.621s15.62-23.567 15.62-37.712zM512 789.333c-105.557 0-122.795-0.299-171.904-2.475-33.451-1.579-55.893-6.059-76.715-14.165-18.517-7.168-31.872-15.744-46.080-29.995-13.354-12.902-23.622-28.654-30.037-46.080-8.107-20.907-12.587-43.307-14.123-76.715-2.219-47.104-2.475-63.573-2.475-171.904 0-105.557 0.299-122.795 2.475-171.904 1.579-33.408 6.059-55.893 14.123-76.672 7.253-18.56 15.787-31.915 29.952-46.080 14.379-14.336 27.733-22.912 46.080-29.995 21.077-8.149 43.52-12.672 76.8-14.208 47.104-2.219 63.573-2.475 171.904-2.475 105.557 0 122.795 0.299 171.904 2.475 33.365 1.579 55.851 6.059 76.672 14.123 18.475 7.211 31.915 15.787 46.080 29.952 14.379 14.379 22.955 27.733 30.037 46.080 8.107 21.035 12.629 43.52 14.165 76.8 2.219 47.104 2.475 63.573 2.475 171.904 0 105.557-0.299 122.795-2.475 171.904-1.579 33.365-6.059 55.893-14.165 76.715-6.43 17.408-16.678 33.154-29.995 46.080-12.898 13.361-28.651 23.63-46.080 30.037-20.907 8.107-43.349 12.587-76.715 14.123-47.104 2.219-63.573 2.475-171.904 2.475zM512 874.667c115.925 0 130.389-0.427 175.872-2.56 45.44-2.133 76.373-9.259 103.595-19.84 28.16-10.837 51.883-25.515 75.605-49.195 21.696-21.329 38.485-47.129 49.195-75.605 10.539-27.179 17.707-58.155 19.84-103.595 2.005-45.483 2.56-59.947 2.56-175.872s-0.427-130.389-2.56-175.872c-2.133-45.44-9.301-76.373-19.84-103.595-10.679-28.493-27.473-54.298-49.195-75.605-21.333-21.687-47.134-38.477-75.605-49.195-27.179-10.539-58.155-17.707-103.595-19.84-45.483-2.005-59.947-2.56-175.872-2.56s-130.389 0.427-175.872 2.56c-45.44 2.133-76.373 9.301-103.595 19.84-28.487 10.688-54.292 27.482-75.605 49.195-21.7 21.325-38.488 47.125-49.195 75.605-10.581 27.179-17.707 58.155-19.84 103.595-2.005 45.483-2.56 59.947-2.56 175.872s0.427 130.389 2.56 175.872c2.133 45.483 9.259 76.373 19.84 103.595 10.677 28.494 27.469 54.301 49.195 75.605 21.319 21.708 47.122 38.497 75.605 49.195 27.221 10.581 58.112 17.707 103.595 19.84 45.483 2.005 59.947 2.56 175.872 2.56z" />
<glyph unicode="&#xe91a;" glyph-name="linkedin-line" d="M512 552.533c39.125 39.979 90.069 66.133 149.333 66.133 62.238 0 121.924-24.724 165.935-68.732 44.006-44.010 68.732-103.697 68.732-165.935v-320h-85.333v320c0 39.607-15.731 77.589-43.738 105.596s-65.988 43.738-105.596 43.738c-39.607 0-77.589-15.731-105.596-43.738s-43.738-65.988-43.738-105.596v-320h-85.333v533.333h85.333v-44.8zM213.333 682.667c-16.974 0-33.253 6.743-45.255 18.745s-18.745 28.281-18.745 45.255c0 16.974 6.743 33.253 18.745 45.255s28.281 18.745 45.255 18.745c16.974 0 33.253-6.743 45.255-18.745s18.745-28.281 18.745-45.255c0-16.974-6.743-33.253-18.745-45.255s-28.281-18.745-45.255-18.745zM170.667 597.333h85.333v-533.333h-85.333v533.333z" />
<glyph unicode="&#xe91b;" glyph-name="source_icons_arrow-left-1" d="M534.626 726.627c12.497-12.497 12.497-32.758 0-45.255l-201.371-201.373h456.079c17.673 0 32-14.327 32-32s-14.327-32-32-32h-456.079l201.371-201.374c12.497-12.497 12.497-32.755 0-45.252s-32.755-12.497-45.252 0l-256.001 256c-3.068 3.068-5.383 6.605-6.944 10.377-1.565 3.772-2.428 7.91-2.428 12.25s0.864 8.478 2.428 12.25c1.562 3.772 3.876 7.309 6.944 10.377l256.001 256.001c12.497 12.497 32.755 12.497 45.252 0z" />
<glyph unicode="&#xe91c;" glyph-name="source_icons_arrow-left-2" d="M489.374 169.374c-12.497 12.497-12.497 32.755 0 45.252l201.37 201.374h-456.077c-17.673 0-32 14.327-32 32s14.327 32 32 32h456.077l-201.37 201.373c-12.497 12.497-12.497 32.758 0 45.255s32.755 12.497 45.252 0l256-256.001c3.068-3.068 5.385-6.605 6.946-10.377 1.566-3.772 2.428-7.91 2.428-12.25s-0.862-8.478-2.428-12.25c-1.562-3.772-3.878-7.309-6.946-10.377l-256-256c-12.497-12.497-32.755-12.497-45.252 0z" />
<glyph unicode="&#xe91d;" glyph-name="source_icons_arrow-left-3" d="M790.626 425.374c-12.497-12.497-32.755-12.497-45.252 0l-201.374 201.371v-456.079c0-17.673-14.327-32-32-32s-32 14.327-32 32v456.079l-201.373-201.371c-12.497-12.497-32.758-12.497-45.255 0s-12.497 32.755 0 45.252l256.001 256.001c3.068 3.068 6.605 5.383 10.377 6.944 3.772 1.565 7.91 2.428 12.25 2.428s8.478-0.864 12.25-2.428c3.772-1.562 7.309-3.876 10.377-6.944l256-256.001c12.497-12.497 12.497-32.755 0-45.252z" />
<glyph unicode="&#xe91e;" glyph-name="source_icons_arrow-left-4" d="M233.373 470.626c12.497 12.497 32.758 12.497 45.255 0l201.373-201.37v456.077c0 17.673 14.327 32 32 32s32-14.327 32-32v-456.077l201.374 201.37c12.497 12.497 32.755 12.497 45.252 0s12.497-32.755 0-45.252l-256-256c-3.068-3.068-6.605-5.385-10.377-6.946-3.772-1.566-7.91-2.428-12.25-2.428s-8.478 0.862-12.25 2.428c-3.772 1.562-7.309 3.878-10.377 6.946l-256.001 256c-12.497 12.497-12.497 32.755 0 45.252z" />
<glyph unicode="&#xe91f;" glyph-name="source_icons_instagram-1-1" d="M309.333 448c0 111.93 90.737 202.667 202.667 202.667 111.927 0 202.667-90.737 202.667-202.667 0-111.927-90.739-202.667-202.667-202.667-111.93 0-202.667 90.739-202.667 202.667zM512 586.667c-76.582 0-138.667-62.084-138.667-138.667s62.084-138.667 138.667-138.667c76.582 0 138.667 62.084 138.667 138.667s-62.084 138.667-138.667 138.667zM341.333 800c-100.148 0-181.333-81.186-181.333-181.333v-341.333c0-100.147 81.186-181.333 181.333-181.333h341.333c100.147 0 181.333 81.186 181.333 181.333v341.333c0 100.147-81.186 181.333-181.333 181.333h-341.333zM96 618.667c0 135.494 109.84 245.333 245.333 245.333h341.333c135.492 0 245.333-109.839 245.333-245.333v-341.333c0-135.492-109.841-245.333-245.333-245.333h-341.333c-135.494 0-245.333 109.841-245.333 245.333v341.333zM747.17 685.117c13.133-11.823 14.199-32.057 2.377-45.193l-0.427-0.474c-11.827-13.136-32.060-14.199-45.193-2.376-13.137 11.823-14.199 32.056-2.377 45.192l0.427 0.474c11.823 13.136 32.055 14.2 45.193 2.377z" />
<glyph unicode="&#xe920;" glyph-name="source_icons_planet-1" d="M512 746.667c-164.949 0-298.667-133.718-298.667-298.667s133.718-298.667 298.667-298.667c164.949 0 298.667 133.717 298.667 298.667s-133.717 298.667-298.667 298.667zM128 448c0 212.077 171.923 384 384 384 212.079 0 384-171.923 384-384 0-212.079-171.921-384-384-384-212.077 0-384 171.921-384 384zM867.029 661.14c-26.010 1.626-63.501-2.487-110.63-13.534l-19.473 83.081c50.918 11.937 97.591 17.985 135.424 15.62 34.372-2.148 78.187-12.506 97.587-51.418v-0.002c18.138-36.374 3.332-74.778-13.35-102.097-18.027-29.526-46.763-60.591-81.796-91.427-70.558-62.101-174.349-129.941-294.605-189.897-120.256-59.959-236.898-102.025-328.957-120.998-45.711-9.421-87.814-13.675-122.246-10.304-31.857 3.115-71.437 14.404-89.572 50.778-19.36 38.827-1.38 79.957 17.509 108.646 20.78 31.569 53.55 65.114 93.547 98.505l54.687-65.506c-37.002-30.891-62.701-58.257-76.959-79.919-8.148-12.378-10.563-19.631-11.295-23.104 2.886-1.335 8.894-3.349 20.394-4.476 22.304-2.18 54.915 0.341 96.709 8.956 82.953 17.101 192.494 56.145 308.108 113.788v0.004c115.614 57.638 212.723 121.621 276.297 177.582 32.034 28.194 53.675 52.719 65.353 71.846 6.025 9.861 8.030 15.872 8.7 18.98-3.221 1.51-10.517 3.964-25.429 4.896z" />
<glyph unicode="&#xe921;" glyph-name="source_icons_telegram-3-1" d="M927.962 748.303c-0.265 5.329-1.869 10.649-4.898 15.437-1.327 2.111-2.876 4.021-4.595 5.717-3.755 3.712-8.29 6.345-13.141 7.82-2.014 0.611-4.083 1.024-6.174 1.232-2.039 0.203-4.1 0.211-6.153 0.020-3.179-0.297-6.336-1.071-9.365-2.343l-810.050-319.755c-13.504-5.333-21.727-19.085-20.032-33.502 1.695-14.421 12.884-25.89 27.256-27.942l271.192-38.741v-206.916c0-12.966 7.827-24.653 19.818-29.589s25.777-2.146 34.907 7.061l119.835 120.879 244.702-167.424c9.020-6.174 20.561-7.313 30.613-3.029s17.225 13.397 19.021 24.175l106.645 639.875c0.397 2.31 0.538 4.667 0.418 7.026zM541.090 315.29c-0.286 0.201-0.576 0.401-0.866 0.593l-100.22 68.57 411.802 291.693-85.79-514.75-224.926 153.894zM375.907 417.481l285.341 202.115-451.791-178.337 166.45-23.778zM416.001 323.328l56.865-38.908-56.865-57.357v96.265zM883.964 776.315c4.838 1.965 10.061 2.701 15.189 2.194 2.091-0.208 4.16-0.62 6.174-1.232 1.583-0.483 3.14-1.092 4.655-1.828 1.028-0.498 2.031-1.055 3.012-1.67 2.961-1.854 5.538-4.141 7.684-6.742 0.499-0.603 0.977-1.229 1.438-1.877 0.26-0.368 0.512-0.74 0.755-1.115 0.179-0.276 0.354-0.556 0.521-0.837zM922.871 764.045c-0.67 1.036-1.404 2.035-2.193 2.992l2.193-2.992z" />
<glyph unicode="&#xe922;" glyph-name="source_icons_twitter-1" d="M342.443 44.8c-110.933 0-221.867 29.867-324.267 85.333-12.8 8.533-21.333 21.333-17.067 38.4s17.067 25.6 34.133 25.6c81.067-4.267 157.867 12.8 230.4 51.2-341.333 192-179.2 567.467-174.933 567.467 4.267 12.8 12.8 21.333 25.6 21.333s21.333-4.267 29.867-12.8c38.4-59.733 93.867-106.667 153.6-136.533 51.2-25.6 110.933-42.667 170.666-42.667v8.533c0 46.933 12.8 89.6 38.4 128s64 68.267 106.667 81.067c42.667 17.067 89.6 17.067 132.267 8.533 38.4-8.533 72.533-29.867 98.133-55.467 38.4 17.067 89.6 42.667 110.933 55.467 8.533 8.533 25.6 8.533 34.133 0s12.8-21.333 8.533-34.133c-4.267-12.8-42.667-102.4-85.333-153.6 0-8.533 0-17.067 0-25.6 0-230.4-102.4-422.4-277.333-524.8-89.6-55.467-187.733-85.333-294.4-85.333zM158.976 138.667c153.6-51.2 311.466-38.4 448 42.667 157.867 93.867 247.467 264.533 247.467 469.333 0 8.533 0 21.333-4.267 29.867 0 8.533 0 21.333 8.533 29.867 12.8 12.8 29.867 34.133 42.667 59.733-21.333-8.533-38.4-17.067-55.467-21.333-12.8-4.267-25.6 0-34.133 8.533-21.333 25.6-51.2 42.667-81.067 51.2s-64 4.267-93.867-4.267c-29.867-12.8-55.467-34.133-76.8-59.733-17.067-25.6-29.867-59.733-25.6-89.6v-42.667c0-17.067-12.8-29.867-29.867-29.867-81.066-8.533-162.133 8.533-234.666 46.933-51.2 25.6-98.133 64-140.8 106.667-29.867-106.667-55.467-337.067 213.333-460.8 8.533-4.267 17.067-12.8 17.067-25.6s-4.267-21.333-12.8-29.867c-55.467-38.4-119.467-64-187.733-81.067z" />
<glyph unicode="&#xe924;" glyph-name="telegram-line" d="M512 106.667c90.526 0 177.348 35.964 241.361 99.972 64.009 64.013 99.972 150.835 99.972 241.361 0 90.527-35.964 177.347-99.972 241.359-64.013 64.013-150.835 99.974-241.361 99.974-90.527 0-177.347-35.962-241.359-99.974s-99.974-150.832-99.974-241.359c0-90.526 35.962-177.348 99.974-241.361 64.012-64.009 150.832-99.972 241.359-99.972zM512 21.333c-235.648 0-426.667 191.019-426.667 426.667s191.019 426.667 426.667 426.667c235.648 0 426.667-191.019 426.667-426.667s-191.019-426.667-426.667-426.667zM379.307 398.080l-106.581 33.237c-23.040 7.040-23.168 22.912 5.163 34.304l415.275 160.427c24.107 9.813 37.76-2.603 29.952-33.707l-70.699-333.653c-4.949-23.765-19.243-29.44-39.083-18.475l-108.843 80.555-50.731-48.981c-5.205-5.035-9.429-9.344-17.451-10.411-7.979-1.109-14.549 1.28-19.371 14.507l-37.12 122.496-0.512-0.341v0.043z" />
<glyph unicode="&#xe925;" glyph-name="whatsapp-line" d="M309.462 170.923l30.891-18.048c52.093-30.383 111.343-46.332 171.648-46.208 67.511 0 133.504 20.019 189.636 57.523 56.132 37.508 99.878 90.816 125.717 153.186 25.835 62.37 32.593 131.004 19.422 197.214-13.171 66.213-45.679 127.033-93.414 174.769-47.74 47.736-108.557 80.245-174.771 93.416-66.21 13.17-134.839 6.411-197.212-19.424-62.371-25.835-115.68-69.584-153.186-125.716s-57.525-122.123-57.525-189.635c0-61.269 16.085-120.021 46.251-171.691l18.005-30.891-27.861-102.443 102.4 27.947zM85.504 21.333l57.685 211.968c-38.010 65.156-57.98 139.264-57.856 214.699 0 235.648 191.019 426.667 426.666 426.667s426.667-191.019 426.667-426.667c0-235.648-191.019-426.667-426.667-426.667-75.401-0.124-149.475 19.831-214.613 57.813l-211.883-57.813zM358.016 648.192c5.717 0.427 11.477 0.427 17.195 0.171 2.304-0.171 4.608-0.427 6.912-0.683 6.784-0.768 14.251-4.907 16.768-10.624 12.715-28.843 25.088-57.899 37.034-87.040 2.645-6.485 1.067-14.805-3.968-22.912-3.46-5.483-7.208-10.778-11.221-15.872-4.821-6.187-15.189-17.536-15.189-17.536s-4.224-5.035-2.603-11.307c0.597-2.389 2.56-5.845 4.352-8.747l2.517-4.053c10.923-18.219 25.6-36.693 43.52-54.101 5.12-4.949 10.112-10.027 15.488-14.763 19.968-17.621 42.581-32 66.987-42.667l0.213-0.085c3.627-1.579 5.461-2.432 10.752-4.693 2.645-1.109 5.376-2.091 8.149-2.816 2.867-0.73 5.884-0.593 8.674 0.397 2.786 0.986 5.218 2.778 6.985 5.15 30.891 37.419 33.707 39.851 33.963 39.851v-0.085c2.146 2.001 4.698 3.52 7.479 4.454s5.73 1.263 8.649 0.964c2.56-0.171 5.163-0.64 7.552-1.707 22.656-10.368 59.733-26.539 59.733-26.539l24.832-11.136c4.181-2.005 7.979-6.741 8.107-11.307 0.171-2.859 0.427-7.467-0.555-15.915-1.365-11.051-4.693-24.32-8.021-31.275-2.278-4.745-5.303-9.097-8.96-12.885-4.305-4.518-9.020-8.636-14.080-12.288-1.749-1.318-3.529-2.598-5.333-3.84-5.308-3.366-10.761-6.498-16.341-9.387-10.987-5.837-23.117-9.186-35.541-9.813-7.893-0.427-15.787-1.024-23.723-0.597-0.341 0-24.235 3.712-24.235 3.712-60.659 15.957-116.762 45.845-163.84 87.296-9.643 8.491-18.56 17.621-27.691 26.709-37.973 37.76-66.645 78.507-84.053 116.992-8.91 18.889-13.723 39.45-14.123 60.331-0.176 25.905 8.292 51.129 24.064 71.68 3.115 4.011 6.059 8.192 11.136 13.013 5.419 5.12 8.832 7.851 12.544 9.728 4.936 2.473 10.32 3.924 15.829 4.267l0.043-0.043z" />
</font>
</defs>
</svg>
