<svg width="53" height="86" viewBox="0 0 53 86" fill="none" xmlns="http://www.w3.org/2000/svg">
<g clip-path="url(#clip0)">
<path d="M3.21299 42.9278C3.21299 42.9278 4.15411 27.3445 5.22355 24.4539C6.30522 21.5206 7.63133 16.6623 12.2085 15.7823C16.7858 14.8962 20.3608 15.6173 21.2835 15.7823C23.3491 16.1489 23.453 16.3445 26.3435 15.9412C29.2341 15.5378 29.7963 14.8351 33.8908 15.3056C37.9852 15.7823 41.2791 16.8212 43.3691 16.7417C45.4591 16.6623 45.618 16.0206 46.1802 17.2245C46.7424 18.4284 48.8324 31.3595 49.1502 33.0462C49.4741 34.7328 49.7919 42.1212 49.8713 42.9278C49.9508 43.7284 52.3036 37.1467 52.2791 33.7734C52.2669 31.5978 51.7719 17.3101 48.423 16.1856C48.423 16.1856 48.3374 9.68338 40.7108 5.26505C33.958 1.35394 33.3041 2.85727 30.9208 1.97116C28.9408 1.23783 24.2535 0.284495 20.2385 1.40894C20.2385 1.40894 17.7513 1.40894 16.303 1.81227C16.303 1.81227 13.6508 2.05061 12.6913 2.77783C12.6913 2.77783 7.06911 3.90227 6.26244 6.31005C6.26244 6.31005 4.49633 7.67283 4.09299 9.04172C4.09299 9.04172 0.957994 12.0117 1.44077 15.7089C1.44077 15.7089 1.11688 18.7645 0.640217 20.2067C0.640217 20.2067 -0.245895 22.5351 2.40633 19.3206C2.40633 19.3206 1.37355 23.0301 1.28188 24.9428C1.15355 27.6745 0.799105 41.0028 3.21299 42.9278Z" fill="#181823"/>
<path d="M48.0628 52.2711C47.6228 52.8517 47.6839 54.4161 47.4822 55.1128C46.4678 58.6205 45.0745 58.3883 43.9806 59.0483C42.8867 59.7022 41.8661 61.5967 41.3589 62.5439C40.8517 63.4911 40.705 65.2389 39.9045 64.6583C39.1039 64.0778 38.0589 63.2711 37.2094 62.8372C36.0606 62.2505 31.4467 60.185 29.3383 60.3622C28.0917 60.4661 27.1872 61.0283 26.5578 61.1628C25.9222 61.0283 25.0178 60.4661 23.7711 60.3622C21.6628 60.185 17.0489 62.2505 15.9 62.8372C15.0445 63.2711 14.0056 64.0778 13.205 64.6583C12.4045 65.2389 12.2578 63.4911 11.7445 62.5439C11.2372 61.5967 10.2167 59.7022 9.12279 59.0483C8.0289 58.3883 6.64167 58.6205 5.62723 55.1128C5.42556 54.4161 5.48056 52.8517 5.04667 52.2711C4.60667 51.6905 2.27834 49.4294 4.24612 60.1422C6.2139 70.855 10.2228 73.2628 10.2228 73.2628C11.8972 77.4183 18.7478 82.5211 18.7478 82.5211C21.9133 86.2917 25.9528 85.7417 26.5578 85.7417C27.1689 85.7417 31.2022 86.2917 34.3678 82.5211C34.3678 82.5211 41.2183 77.4183 42.8928 73.2628C42.8928 73.2628 46.9017 70.8611 48.8695 60.1483C50.8311 49.4294 48.5028 51.6844 48.0628 52.2711ZM35.1683 75.0105C32.9072 76.2511 30.5056 80.4066 29.265 79.3861C28.0245 78.3655 27.9511 77.0517 28.2445 76.2511C28.5378 75.4505 27.8045 74.7172 29.5522 73.2628C31.3 71.8083 31.7706 70.9405 31.2267 70.1278C30.4933 69.0339 28.2995 69.9261 26.625 69.9078C26.6067 69.9078 26.5822 69.9078 26.5578 69.9078C26.5272 69.9078 26.4967 69.9078 26.4661 69.9078C24.7917 69.92 22.5978 69.0339 21.8645 70.1278C21.3206 70.9405 21.7911 71.8022 23.5389 73.2628C25.2867 74.7172 24.5595 75.4505 24.8528 76.2511C25.1461 77.0517 25.0728 78.3655 23.8322 79.3861C22.5917 80.4066 20.19 76.2511 17.9289 75.0105C15.6678 73.77 16.3217 68.6 16.6883 68.2333C17.055 67.8666 17.055 66.4855 19.9639 67.3594C22.06 67.9889 24.9445 66.2839 26.5395 64.5422C28.1345 66.2839 31.0189 67.9828 33.115 67.3594C36.03 66.4855 36.03 67.8666 36.3967 68.2333C36.7695 68.5939 37.4233 73.77 35.1683 75.0105Z" fill="#BCBCBC"/>
</g>
<defs>
<clipPath id="clip0">
<rect width="51.7856" height="84.8711" fill="white" transform="translate(0.5 0.888916)"/>
</clipPath>
</defs>
</svg>
